<svg width="210" height="210" viewBox="0 0 210 210" fill="none" xmlns="http://www.w3.org/2000/svg">
<path fill-rule="evenodd" clip-rule="evenodd" d="M157.479 115.5H157.237C145.939 115.5 136.5 125.843 136.5 137.141V147H73.5V137.443C73.5 126.534 64.764 116.95 53.865 117.443C39.4065 118.084 26.5335 108.947 22.512 95.8433C12.2115 62.2538 54.831 39.6389 76.671 66.0044C58.5585 28.1939 116.193 1.39404 133.602 39.4775C135.556 43.6336 136.547 48.1796 136.501 52.7717C136.456 57.3639 135.375 61.8878 133.339 66.0044C136.245 62.4451 139.897 59.5662 144.038 57.5757C148.179 55.5851 152.706 54.5299 157.301 54.4841L157.5 54.4739C167.139 53.4869 176.946 56.4489 182.343 64.4919C199.227 89.6499 181.398 115.5 157.479 115.5ZM73.5 189H136.5V168H73.5V189ZM153.93 33.8328C150.166 23.8979 143.47 15.3424 134.732 9.30029C125.993 3.25823 115.624 0.0133982 105 0C94.3759 0.0133982 84.007 3.25823 75.2683 9.30029C66.5296 15.3424 59.8342 23.8979 56.07 33.8328C24.087 31.6383 1.05008e-06 56.8891 1.05008e-06 85.9636C-0.00137801 92.8589 1.35558 99.6853 3.99334 106.056C6.63109 112.427 10.498 118.217 15.3732 123.093C20.2484 127.969 26.0364 131.836 32.4067 134.475C38.7769 137.114 45.6047 138.474 52.5 138.474V210H157.5V138.474C164.395 138.474 171.223 137.114 177.593 134.475C183.964 131.836 189.752 127.969 194.627 123.093C199.502 118.217 203.369 112.427 206.007 106.056C208.644 99.6853 210.001 92.8589 210 85.9636C210 56.9416 185.955 31.6278 153.93 33.8328Z" fill="black"/>
<path d="M124.686 72.212C124.81 72.9147 124.893 73.4107 124.934 73.7C125.017 73.948 125.058 74.2993 125.058 74.754C125.058 76.118 124.748 77.3993 124.128 78.598C123.549 79.7553 122.743 80.582 121.71 81.078C120.883 79.962 119.871 79.0113 118.672 78.226C117.473 77.3993 116.151 76.738 114.704 76.242C113.299 75.7047 111.831 75.312 110.302 75.064C108.773 74.816 107.285 74.692 105.838 74.692C104.391 74.692 103.027 74.816 101.746 75.064C100.506 75.2707 99.39 75.5807 98.398 75.994C97.4473 76.366 96.6827 76.8413 96.104 77.42C95.5667 77.9987 95.298 78.66 95.298 79.404C95.422 80.3133 95.98 81.2433 96.972 82.194C97.964 83.1033 99.1833 84.0127 100.63 84.922C102.077 85.79 103.668 86.658 105.404 87.526C107.181 88.394 108.917 89.2207 110.612 90.006C112.72 90.998 114.539 91.928 116.068 92.796C117.597 93.6227 118.858 94.5527 119.85 95.586C120.842 96.578 121.586 97.7147 122.082 98.996C122.578 100.277 122.826 101.827 122.826 103.646C122.826 105.754 122.475 107.738 121.772 109.598C121.069 111.417 120.036 113.008 118.672 114.372C117.349 115.736 115.737 116.79 113.836 117.534C111.935 118.319 109.806 118.712 107.45 118.712C105.135 118.712 102.635 118.361 99.948 117.658C97.2613 116.955 94.74 115.984 92.384 114.744C90.0693 113.545 88.1267 112.161 86.556 110.59C85.0267 108.978 84.262 107.283 84.262 105.506C84.262 104.679 84.4893 103.625 84.944 102.344C85.44 101.063 86.308 99.7193 87.548 98.314C87.672 99.554 88.3333 101.021 89.532 102.716C90.772 104.411 92.6113 105.981 95.05 107.428C97.3233 108.751 99.6587 109.722 102.056 110.342C104.495 110.921 106.768 111.21 108.876 111.21C111.191 111.21 113.071 110.921 114.518 110.342C115.965 109.763 117.101 109.081 117.928 108.296C118.755 107.469 119.333 106.643 119.664 105.816C119.995 104.989 120.181 104.328 120.222 103.832C120.181 103.005 119.788 102.22 119.044 101.476C118.341 100.691 117.37 99.9467 116.13 99.244C114.931 98.5 113.526 97.756 111.914 97.012C110.302 96.268 108.628 95.524 106.892 94.78C104.288 93.6227 102.035 92.548 100.134 91.556C98.274 90.5227 96.724 89.4893 95.484 88.456C94.2853 87.3813 93.3967 86.2653 92.818 85.108C92.2807 83.9507 92.012 82.628 92.012 81.14C92.012 78.8253 92.7147 76.6347 94.12 74.568C95.5253 72.5013 97.5507 70.9307 100.196 69.856C101.519 69.2773 102.924 68.864 104.412 68.616C105.941 68.368 107.429 68.244 108.876 68.244C111.604 68.244 114.27 68.616 116.874 69.36C119.478 70.104 122.082 71.0547 124.686 72.212Z" fill="black"/>
</svg>
