<svg width="512" height="512" viewBox="0 0 512 512" fill="none" xmlns="http://www.w3.org/2000/svg">
<rect width="512" height="512" fill="white"/>
<path fill-rule="evenodd" clip-rule="evenodd" d="M308.479 266.5H308.237C296.939 266.5 287.5 276.843 287.5 288.141V298H224.5V288.443C224.5 277.534 215.764 267.95 204.865 268.443C190.406 269.084 177.533 259.947 173.512 246.843C163.211 213.254 205.831 190.639 227.671 217.004C209.559 179.194 267.193 152.394 284.602 190.478C286.556 194.634 287.547 199.18 287.501 203.772C287.456 208.364 286.375 212.888 284.339 217.004C287.245 213.445 290.897 210.566 295.038 208.576C299.179 206.585 303.706 205.53 308.301 205.484L308.5 205.474C318.139 204.487 327.946 207.449 333.343 215.492C350.227 240.65 332.398 266.5 308.479 266.5V266.5ZM224.5 340H287.5V319H224.5V340ZM304.93 184.833C301.166 174.898 294.47 166.342 285.732 160.3C276.993 154.258 266.624 151.013 256 151C245.376 151.013 235.007 154.258 226.268 160.3C217.53 166.342 210.834 174.898 207.07 184.833C175.087 182.638 151 207.889 151 236.964C150.999 243.859 152.356 250.685 154.993 257.056C157.631 263.427 161.498 269.217 166.373 274.093C171.248 278.969 177.036 282.836 183.407 285.475C189.777 288.114 196.605 289.474 203.5 289.474V361H308.5V289.474C315.395 289.474 322.223 288.114 328.593 285.475C334.964 282.836 340.752 278.969 345.627 274.093C350.502 269.217 354.369 263.427 357.007 257.056C359.644 250.685 361.001 243.859 361 236.964C361 207.942 336.955 182.628 304.93 184.833Z" fill="black"/>
<path d="M275.686 223.212C275.81 223.915 275.893 224.411 275.934 224.7C276.017 224.948 276.058 225.299 276.058 225.754C276.058 227.118 275.748 228.399 275.128 229.598C274.549 230.755 273.743 231.582 272.71 232.078C271.883 230.962 270.871 230.011 269.672 229.226C268.473 228.399 267.151 227.738 265.704 227.242C264.299 226.705 262.831 226.312 261.302 226.064C259.773 225.816 258.285 225.692 256.838 225.692C255.391 225.692 254.027 225.816 252.746 226.064C251.506 226.271 250.39 226.581 249.398 226.994C248.447 227.366 247.683 227.841 247.104 228.42C246.567 228.999 246.298 229.66 246.298 230.404C246.422 231.313 246.98 232.243 247.972 233.194C248.964 234.103 250.183 235.013 251.63 235.922C253.077 236.79 254.668 237.658 256.404 238.526C258.181 239.394 259.917 240.221 261.612 241.006C263.72 241.998 265.539 242.928 267.068 243.796C268.597 244.623 269.858 245.553 270.85 246.586C271.842 247.578 272.586 248.715 273.082 249.996C273.578 251.277 273.826 252.827 273.826 254.646C273.826 256.754 273.475 258.738 272.772 260.598C272.069 262.417 271.036 264.008 269.672 265.372C268.349 266.736 266.737 267.79 264.836 268.534C262.935 269.319 260.806 269.712 258.45 269.712C256.135 269.712 253.635 269.361 250.948 268.658C248.261 267.955 245.74 266.984 243.384 265.744C241.069 264.545 239.127 263.161 237.556 261.59C236.027 259.978 235.262 258.283 235.262 256.506C235.262 255.679 235.489 254.625 235.944 253.344C236.44 252.063 237.308 250.719 238.548 249.314C238.672 250.554 239.333 252.021 240.532 253.716C241.772 255.411 243.611 256.981 246.05 258.428C248.323 259.751 250.659 260.722 253.056 261.342C255.495 261.921 257.768 262.21 259.876 262.21C262.191 262.21 264.071 261.921 265.518 261.342C266.965 260.763 268.101 260.081 268.928 259.296C269.755 258.469 270.333 257.643 270.664 256.816C270.995 255.989 271.181 255.328 271.222 254.832C271.181 254.005 270.788 253.22 270.044 252.476C269.341 251.691 268.37 250.947 267.13 250.244C265.931 249.5 264.526 248.756 262.914 248.012C261.302 247.268 259.628 246.524 257.892 245.78C255.288 244.623 253.035 243.548 251.134 242.556C249.274 241.523 247.724 240.489 246.484 239.456C245.285 238.381 244.397 237.265 243.818 236.108C243.281 234.951 243.012 233.628 243.012 232.14C243.012 229.825 243.715 227.635 245.12 225.568C246.525 223.501 248.551 221.931 251.196 220.856C252.519 220.277 253.924 219.864 255.412 219.616C256.941 219.368 258.429 219.244 259.876 219.244C262.604 219.244 265.27 219.616 267.874 220.36C270.478 221.104 273.082 222.055 275.686 223.212Z" fill="black"/>
</svg>
